# AST/ASF file generated using VICON BodyLanguage
# -----------------------------------------------
:version 1.10
:name VICON
:units
  mass 1.0
  length 0.45
  angle deg
:documentation
   .ast/.asf automatically generated from VICON data using
   VICON BodyBuilder and BodyLanguage model FoxedUp or BRILLIANT.MOD
:root
   order TX TY TZ RX RY RZ
   axis XYZ
   position 0 0 0  
   orientation 0 0 0 
:bonedata
  begin
     id 1 
     name lhipjoint
     direction 0.606768 -0.715223 0.346827 
     length 2.41543 
     axis 0 0 0  XYZ
  end
  begin
     id 2 
     name lfemur
     direction 0.34202 -0.939693 0  
     length 7.2778  
     axis 0 0 20  XYZ
    dof rx ry rz
    limits (-160.0 20.0)
           (-70.0 70.0)
           (-60.0 70.0)
  end
  begin
     id 3 
     name ltibia
     direction 0.34202 -0.939693 0   
     length 7.61811   
     axis 0 0 20   XYZ
    dof rx
    limits (-10.0 170.0)
  end
  begin
     id 4 
     name lfoot
     direction 0.0823924 -0.226371 0.97055   
     length 2.33618   
     axis -90 7.62852e-016 20   XYZ
    dof rx rz
    limits (-45.0 90.0)
           (-70.0 20.0)
  end
  begin
     id 5 
     name ltoes
     direction 1.53554e-011 -4.21934e-011 1   
     length 1.17015   
     axis -90 7.62852e-016 20   XYZ
    dof rx
    limits (-90.0 20.0)
  end
  begin
     id 6 
     name rhipjoint
     direction -0.6077 -0.714582 0.346516   
     length 2.4176  
     axis 0 0 0  XYZ 
  end
  begin
     id 7 
     name rfemur
     direction -0.34202 -0.939693 0   
     length 7.28127   
     axis 0 0 -20   XYZ
    dof rx ry rz
    limits (-160.0 20.0)
           (-70.0 70.0)
           (-70.0 60.0)
  end
  begin
     id 8 
     name rtibia
     direction -0.34202 -0.939693 0   
     length 7.77648   
     axis 0 0 -20   XYZ
    dof rx
    limits (-10.0 170.0)
 end
 begin
     id 9 
     name rfoot
     direction -0.0809463 -0.222398 0.97159   
     length 2.37533  
     axis -90 -7.62852e-016 -20   XYZ
    dof rx rz
    limits (-45.0 90.0)
           (-20.0 70.0)
  end
  begin
     id 10 
     name rtoes
     direction -1.53568e-011 -4.21714e-011 1   
     length 1.18972   
     axis -90 -7.62852e-016 -20   XYZ
    dof rx
    limits (-90.0 20.0)
  end
  begin
     id 11 
     name lowerback
     direction 0.010968 0.991932 -0.126297   
     length 2.21698   
     axis 0 0 0   XYZ
    dof rx ry rz
    limits (-20.0 45.0)
           (-30.0 30.0)
           (-30.0 30.0)
  end
  begin
     id 12 
     name upperback
     direction 0.0167007 0.997503 -0.0686276   
     length 2.22371   
     axis 0 0 0   XYZ
    dof rx ry rz
    limits (-20.0 45.0)
           (-30.0 30.0)
           (-30.0 30.0)
  end
  begin
     id 13 
     name thorax
     direction 0.0111721 0.999885 -0.0102878   
     length 2.25242   
     axis 0 0 0   XYZ
    dof rx ry rz
    limits (-20.0 45.0)
           (-30.0 30.0)
           (-30.0 30.0)
  end
  begin
     id 14 
     name lowerneck
     direction -0.0120265 0.990428 0.137508   
     length 1.57674   
     axis 0 0 0   XYZ
    dof rx ry rz
    limits (-20.0 45.0)
           (-30.0 30.0)
           (-30.0 30.0)
  end
  begin
     id 15 
     name upperneck
     direction 0.0175669 0.998907 0.0433089   
     length 1.5618   
     axis 0 0 0   XYZ
    dof rx ry rz
    limits (-20.0 45.0)
           (-30.0 30.0)
           (-30.0 30.0)
  end
  begin
     id 16
     name head
     direction 0.00754609 0.99997 0.00185367  
     length 1.60579  
     axis 0 0 0   XYZ
    dof rx ry rz
    limits (-20.0 45.0)
           (-30.0 30.0)
           (-30.0 30.0)
  end
  begin
     id 17 
     name lclavicle
     direction 0.885866 0.429166 -0.176231  
     length 3.44967  
     axis 0 0 0   XYZ
    dof ry rz
    limits (-20.0 10.0)
           (0.0 20.0)
  end
  begin
     id 18 
     name lhumerus
     direction 1 -4.48973e-011 -1.90255e-027   
     length 5.20607   
     axis 180 -30 -90   XYZ
    dof rx ry rz
    limits (-60.0 90.0)
           (-90.0 90.0)
           (-90.0 90.0)
  end
  begin
     id 19
     name lradius
     direction 1 -4.48956e-011 9.87925e-027   
     length 3.39961   
     axis 180 -30 -90   XYZ
    dof rx
    limits (-10.0 170.0)
  end
  begin
     id 20
     name lwrist
     direction 1 -4.48985e-011 1.73247e-026   
     length 1.6998   
     axis -9.60847e-015 90 90   XYZ
    dof ry
    limits (-180.0 0.0)
 end
  begin
     id 21 
     name lhand
     direction 1 -4.48798e-011 3.46119e-026   
     length 0.519693   
     axis -2.21073e-014 90 90   XYZ
    dof rx rz
    limits (-90.0 90.0)
           (-45.0 45.0)
  end
  begin
     id 22 
     name lfingers
     direction 1 -4.48938e-011 6.92797e-026   
     length 0.41899   
     axis -4.42155e-014 90 90   XYZ
    dof rx
    limits (0.0 90.0)
  end
  begin
     id 23
     name lthumb
     direction 0.707107 -6.34952e-011 0.707107   
     length 0.601588   
     axis -90 45 6.0103e-014   XYZ
    dof rx rz
    limits (-45.0 45.0)
           (-45.0 45.0)
  end
  begin
     id 24 
     name rclavicle
     direction -0.866736 0.456792 -0.200276   
     length 3.45032  
     axis 0 0 0   XYZ 
    dof ry rz
    limits (-10.0 20.0)
           (-20.0 0.0)
  end
  begin
     id 25 
     name rhumerus
     direction -1 -4.4897e-011 8.65094e-028  
     length 5.32214   
     axis 180 30 90   XYZ
    dof rx ry rz
    limits (-90.0 60.0)
           (-90.0 90.0)
           (-90.0 90.0)
  end
  begin
     id 26 
     name rradius
     direction -1 -4.48987e-011 1.08427e-026   
     length 3.51208   
     axis 180 30 90   XYZ
    dof rx
    limits (-10.0 170.0)
  end
  begin
     id 27 
     name rwrist
     direction -1 -4.48961e-011 1.73222e-026   
     length 1.75604   
     axis -9.60847e-015 -90 -90   XYZ
    dof ry
    limits (-180.0 0.0)
  end
  begin
     id 28
     name rhand
     direction -1 -4.48895e-011 3.46314e-026   
     length 0.586681   
     axis -2.21073e-014 -90 -90   XYZ
    dof rx rz
    limits (-90.0 90.0)
           (-45.0 45.0)
  end
  begin
     id 29
     name rfingers
     direction -1 -4.48968e-011 6.92916e-026   
     length 0.472997   
     axis -4.42155e-014 -90 -90   XYZ
    dof rx
    limits (0.0 90.0)
  end
  begin
     id 30
     name rthumb
     direction -0.707107 -6.34848e-011 0.707107   
     length 0.679133   
     axis -90 -45 -6.0103e-014   XYZ
    dof rx rz
    limits (-45.0 45.0)
           (-45.0 45.0)
  end
:hierarchy
  begin
    root lhipjoint rhipjoint lowerback
    lhipjoint lfemur
    lfemur ltibia
    ltibia lfoot
    lfoot ltoes
    rhipjoint rfemur
    rfemur rtibia
    rtibia rfoot
    rfoot rtoes
    lowerback upperback
    upperback thorax
    thorax lowerneck lclavicle rclavicle
    lowerneck upperneck
    upperneck head
    lclavicle lhumerus
    lhumerus lradius
    lradius lwrist
    lwrist lhand lthumb
    lhand lfingers
    rclavicle rhumerus
    rhumerus rradius
    rradius rwrist
    rwrist rhand rthumb
    rhand rfingers
  end

#!OML:ASF H:\Dans Jumps\Project 1\Capture day 1\Session 1\subject.ASF
:FULLY-SPECIFIED
:DEGREES
23
root 0.410891 17.6107 -13.8827 7.11859 -2.30345 -1.22176
lowerback 0.36064 -0.237434 -0.241516
upperback 5.40933 -0.377301 1.409
thorax 5.3999 -0.237527 1.57843
lowerneck -11.4118 0.994215 -1.19852
upperneck 36.0991 2.0557 -0.801535
head 14.2619 0.604435 0.19472
rclavicle -5.96354e-015 -1.80894e-014
rhumerus -26.5504 -12.8525 -81.06
rradius 27.4203
rwrist 26.7674
rhand -18.5387 -24.8675
rfingers 7.12502
rthumb 7.75042 -54.7055
lclavicle -5.96354e-015 -1.80894e-014
lhumerus -23.9537 -6.52323 90.4536
lradius 24.1019
lwrist 13.2205
lhand -26.7648 -3.8224
lfingers 7.12502
lthumb -0.192882 26.1573
rfemur -14.9795 -1.7949 18.9837
rtibia 22.898
rfoot -13.6707 -2.68517
rtoes 8.52052
lfemur -12.696 7.04962 -19.3844
ltibia 19.2588
lfoot -11.409 5.87223
ltoes 3.33883
24
root 0.410282 17.6106 -13.8834 7.11429 -2.29676 -1.22242
lowerback 0.360647 -0.238713 -0.240372
upperback 5.40906 -0.379035 1.40907
thorax 5.39965 -0.238332 1.57779
lowerneck -11.4153 0.990295 -1.20062
upperneck 36.1042 2.04804 -0.794358
head 14.2649 0.601727 0.196896
rclavicle 6.60959e-015 -2.18663e-015
rhumerus -26.5511 -12.8586 -81.0635
rradius 27.4188
rwrist 26.7708
rhand -18.5448 -24.866
rfingers 7.12502
rthumb 7.74449 -54.7042
lclavicle 6.60959e-015 -2.18663e-015
lhumerus -23.9611 -6.53031 90.4563
lradius 24.1177
lwrist 13.2261
lhand -26.7602 -3.83167
lfingers 7.12502
lthumb -0.188438 26.148
rfemur -14.9767 -1.79638 18.9868
rtibia 22.9006
rfoot -13.6751 -2.68816
rtoes 8.54955
lfemur -12.6961 7.04833 -19.3807
ltibia 19.2613
lfoot -11.4052 5.86762
ltoes 3.32908
25
root 0.40977 17.6105 -13.8841 7.10975 -2.29203 -1.22454
lowerback 0.36178 -0.239695 -0.236194
upperback 5.4084 -0.380421 1.40864
thorax 5.39831 -0.238803 1.57493
lowerneck -11.4178 0.985976 -1.20237
upperneck 36.1079 2.03982 -0.787755
head 14.2671 0.598771 0.19868
rclavicle -8.54774e-015 1.27222e-014
rhumerus -26.5515 -12.8668 -81.067
rradius 27.413
rwrist 26.777
rhand -18.5556 -24.8539
rfingers 7.12502
rthumb 7.73413 -54.6924
lclavicle -8.54774e-015 1.27222e-014
lhumerus -23.9695 -6.53426 90.4564
lradius 24.1317
lwrist 13.2309
lhand -26.7595 -3.8437
lfingers 7.12502
lthumb -0.187831 26.136
rfemur -14.9741 -1.80004 18.9913
rtibia 22.9033
rfoot -13.6792 -2.6879
rtoes 8.56587
lfemur -12.6955 7.04721 -19.3755
ltibia 19.2643
lfoot -11.4031 5.86292
ltoes 3.33797
26
root 0.409269 17.6103 -13.8849 7.10491 -2.28675 -1.22564
lowerback 0.364964 -0.241698 -0.233486
upperback 5.4076 -0.38312 1.40822
thorax 5.3957 -0.23999 1.57287
lowerneck -11.4221 0.98276 -1.20188
upperneck 36.1123 2.034 -0.784849
head 14.2701 0.596629 0.198934
rclavicle -9.79014e-015 2.8625e-014
rhumerus -26.5517 -12.8703 -81.0711
rradius 27.4062
rwrist 26.7817
rhand -18.5673 -24.8363
rfingers 7.12502
rthumb 7.72279 -54.6753
lclavicle -9.79014e-015 2.8625e-014
lhumerus -23.9777 -6.52909 90.4539
lradius 24.1421
lwrist 13.2302
lhand -26.7641 -3.86494
lfingers 7.12502
lthumb -0.192292 26.1147
rfemur -14.9723 -1.80481 18.9948
rtibia 22.9073
rfoot -13.6832 -2.68772
rtoes 8.57512
lfemur -12.6948 7.04426 -19.3712
ltibia 19.2675
lfoot -11.4021 5.85885
ltoes 3.34681
27
root 0.408706 17.6102 -13.8858 7.09749 -2.2831 -1.22355
lowerback 0.371398 -0.244626 -0.236278
upperback 5.40715 -0.386888 1.40761
thorax 5.39168 -0.241956 1.57365
lowerneck -11.4207 0.981884 -1.19959
upperneck 36.1105 2.03245 -0.786295
head 14.269 0.596079 0.197682
rclavicle 4.96962e-017 2.36554e-014
rhumerus -26.5481 -12.8677 -81.0761
rradius 27.3921
rwrist 26.7856
rhand -18.5791 -24.8158
rfingers 7.12502
rthumb 7.71137 -54.6552
lclavicle 4.96962e-017 2.36554e-014
lhumerus -23.9856 -6.52013 90.4497
lradius 24.149
lwrist 13.2297
lhand -26.7759 -3.88407
lfingers 7.12502
lthumb -0.203664 26.0956
rfemur -14.9695 -1.80606 18.995
rtibia 22.913
rfoot -13.6873 -2.69007
rtoes 8.57579
lfemur -12.6916 7.04071 -19.3697
ltibia 19.2704
lfoot -11.4015 5.85563
ltoes 3.35567
28
root 0.408192 17.61 -13.8867 7.09013 -2.28157 -1.21991
lowerback 0.379013 -0.247322 -0.240978
upperback 5.40655 -0.390285 1.4069
thorax 5.38682 -0.24382 1.57542
lowerneck -11.416 0.981657 -1.20029
upperneck 36.1057 2.0319 -0.785997
head 14.2657 0.595839 0.197791
rclavicle 9.79014e-015 1.15295e-014
rhumerus -26.5465 -12.8558 -81.0825
rradius 27.3843
rwrist 26.7809
rhand -18.5841 -24.8036
rfingers 7.12502
rthumb 7.70655 -54.6431
lclavicle 9.79014e-015 1.15295e-014
lhumerus -23.9919 -6.50885 90.4447
lradius 24.1513
lwrist 13.2279
lhand -26.7862 -3.88428
lfingers 7.12502
lthumb -0.213608 26.0954
rfemur -14.9679 -1.80569 18.9931
rtibia 22.92
rfoot -13.6914 -2.69177
rtoes 8.57033
lfemur -12.6882 7.0367 -19.3702
ltibia 19.2735
lfoot -11.4015 5.85466
ltoes 3.3604
29
root 0.40771 17.6098 -13.8877 7.08126 -2.27948 -1.21638
lowerback 0.38823 -0.250571 -0.246016
upperback 5.40782 -0.39447 1.40715
thorax 5.38306 -0.246131 1.57835
lowerneck -11.4133 0.981602 -1.20188
upperneck 36.0996 2.03265 -0.787901
head 14.2622 0.595755 0.197369
rclavicle -7.7526e-015 1.78906e-015
rhumerus -26.544 -12.8354 -81.0896
rradius 27.3827
rwrist 26.7708
rhand -18.5802 -24.801
rfingers 7.12502
rthumb 7.71033 -54.6405
lclavicle -7.7526e-015 1.78906e-015
lhumerus -23.9952 -6.49406 90.4397
lradius 24.1498
lwrist 13.2241
lhand -26.7998 -3.88622
lfingers 7.12502
lthumb -0.226767 26.0934
rfemur -14.9649 -1.80367 18.991
rtibia 22.9273
rfoot -13.6964 -2.69461
rtoes 8.56553
lfemur -12.684 7.03057 -19.3705
ltibia 19.2775
lfoot -11.4016 5.85588
ltoes 3.36281
30
root 0.407274 17.6097 -13.8889 7.07466 -2.27622 -1.21486
lowerback 0.396142 -0.253986 -0.248067
upperback 5.40946 -0.398997 1.40806
thorax 5.38044 -0.248498 1.58027
lowerneck -11.413 0.980278 -1.20673
upperneck 36.094 2.03156 -0.787296
head 14.2595 0.594757 0.198292
rclavicle 9.0447e-015 7.95139e-016
rhumerus -26.5423 -12.8112 -81.097
rradius 27.3876
rwrist 26.7576
rhand -18.5709 -24.8083
rfingers 7.12502
rthumb 7.71934 -54.6474
lclavicle 9.0447e-015 7.95139e-016
lhumerus -23.9957 -6.48009 90.4344
lradius 24.1436
lwrist 13.2181
lhand -26.8132 -3.88057
lfingers 7.12502
lthumb -0.239699 26.099
rfemur -14.964 -1.80187 18.9912
rtibia 22.9336
rfoot -13.7002 -2.69828
rtoes 8.56149
lfemur -12.6836 7.023 -19.369
ltibia 19.2835
lfoot -11.4025 5.8581
ltoes 3.36886
31
root 0.406867 17.6095 -13.89 7.06893 -2.27256 -1.21524
lowerback 0.40395 -0.257802 -0.247998
upperback 5.41197 -0.404184 1.41023
thorax 5.3788 -0.251138 1.58228
lowerneck -11.4165 0.977945 -1.21547
upperneck 36.0897 2.0295 -0.784929
head 14.2582 0.593007 0.200506
rclavicle -1.98785e-016 -5.96354e-015
rhumerus -26.5408 -12.7847 -81.1038
rradius 27.398
rwrist 26.7424
rhand -18.56 -24.8206
rfingers 7.12502
rthumb 7.72987 -54.6593
lclavicle -1.98785e-016 -5.96354e-015
lhumerus -23.9944 -6.46339 90.429
lradius 24.1338
lwrist 13.2081
lhand -26.8245 -3.88343
lfingers 7.12502
lthumb -0.250583 26.0962
rfemur -14.963 -1.80168 18.9936
rtibia 22.9377
rfoot -13.7011 -2.70067
rtoes 8.55323
lfemur -12.6855 7.01533 -19.3657
ltibia 19.2916
lfoot -11.4023 5.86051
ltoes 3.37877
32
root 0.406483 17.6094 -13.8913 7.06447 -2.26805 -1.21685
lowerback 0.410713 -0.26086 -0.243695
upperback 5.41542 -0.408438 1.41131
thorax 5.37868 -0.253098 1.58084
lowerneck -11.4272 0.974247 -1.22172
upperneck 36.0903 2.02531 -0.783293
head 14.2608 0.590488 0.201726
rclavicle 2.08724e-015 1.70955e-014
rhumerus -26.5394 -12.7613 -81.1111
rradius 27.4106
rwrist 26.7273
rhand -18.5516 -24.8355
rfingers 7.12502
rthumb 7.73797 -54.6739
lclavicle 2.08724e-015 1.70955e-014
lhumerus -23.9909 -6.45437 90.423
lradius 24.1238
lwrist 13.1994
lhand -26.8285 -3.87753
lfingers 7.12502
lthumb -0.254446 26.1021
rfemur -14.9628 -1.80388 18.9974
rtibia 22.9396
rfoot -13.699 -2.70239
rtoes 8.54301
lfemur -12.69 7.00862 -19.3616
ltibia 19.301
lfoot -11.4025 5.86212
ltoes 3.39369
33
root 0.406136 17.6092 -13.8925 7.06131 -2.26501 -1.21939
lowerback 0.417155 -0.263628 -0.238254
upperback 5.41777 -0.412351 1.413
thorax 5.37757 -0.254843 1.5794
lowerneck -11.4401 0.970551 -1.22736
upperneck 36.094 2.02162 -0.783179
head 14.2654 0.588009 0.202319
rclavicle -3.42904e-015 -8.94531e-015
rhumerus -26.537 -12.7422 -81.1153
rradius 27.4172
rwrist 26.7209
rhand -18.5492 -24.8451
rfingers 7.12502
rthumb 7.74023 -54.6834
lclavicle -3.42904e-015 -8.94531e-015
lhumerus -23.9897 -6.44468 90.4175
lradius 24.1135
lwrist 13.1871
lhand -26.8301 -3.86991
lfingers 7.12502
lthumb -0.256028 26.1097
rfemur -14.9634 -1.80808 19.0022
rtibia 22.94
rfoot -13.6946 -2.70124
rtoes 8.52619
lfemur -12.6951 7.00436 -19.3571
ltibia 19.3094
lfoot -11.4015 5.86279
ltoes 3.40571
